<?xml version="1.0" standalone="no"?>
<!DOCTYPE svg PUBLIC "-//W3C//DTD SVG 20010904//EN"
 "http://www.w3.org/TR/2001/REC-SVG-20010904/DTD/svg10.dtd">
<svg version="1.0" xmlns="http://www.w3.org/2000/svg"
 width="1018.000000pt" height="1280.000000pt" viewBox="0 0 1018.000000 1280.000000"
 preserveAspectRatio="xMidYMid meet">
<metadata>
Created by potrace 1.15, written by Peter Selinger 2001-2017
</metadata>
<g transform="translate(0.000000,1280.000000) scale(0.100000,-0.100000)"
fill="#000000" stroke="none">
<path d="M4675 12789 c-273 -17 -463 -63 -583 -141 -74 -48 -183 -163 -230
-241 -47 -77 -87 -180 -107 -273 -10 -43 -22 -82 -27 -85 -9 -6 -4 -250 22
-954 53 -1439 63 -1872 57 -2355 -8 -603 -30 -883 -103 -1337 -3 -24 -9 -43
-13 -43 -3 0 -37 73 -75 163 -255 603 -478 927 -811 1176 -129 96 -328 199
-457 235 -440 125 -835 -7 -1261 -424 -216 -210 -358 -401 -480 -645 -321
-642 -514 -1416 -572 -2290 -33 -496 -37 -1226 -10 -1600 32 -436 77 -741 156
-1045 169 -651 395 -1267 604 -1641 205 -366 494 -678 805 -865 136 -82 165
-89 370 -88 261 1 409 33 615 133 353 172 638 506 925 1086 229 462 360 840
460 1331 34 163 86 475 96 569 8 73 2 70 104 55 204 -29 760 -76 1065 -90 310
-14 525 -1 629 39 l75 29 5 -31 c3 -18 12 -90 21 -162 29 -243 83 -525 141
-745 224 -838 502 -1505 787 -1882 75 -100 260 -293 352 -368 162 -131 335
-223 502 -266 273 -71 584 1 901 209 332 217 587 526 838 1012 244 472 400
927 508 1480 127 654 213 1664 187 2212 -44 911 -236 1676 -641 2555 -133 289
-293 549 -429 701 -197 221 -517 458 -744 552 -98 40 -224 75 -275 75 -18 0
-35 6 -37 13 -4 12 -45 660 -64 1022 -35 646 -45 1279 -23 1405 40 225 118
351 253 408 56 24 110 37 256 63 96 17 174 22 418 26 l300 4 29 46 c75 122
103 272 72 393 -21 83 -64 153 -138 228 l-58 59 -122 6 c-182 10 -502 8 -619
-3 -326 -32 -465 -85 -609 -231 -139 -141 -200 -269 -245 -514 -4 -19 -25 -23
-277 -53 -313 -38 -587 -65 -838 -84 -233 -17 -1012 -18 -1175 0 -206 22 -415
52 -540 78 -145 30 -375 94 -375 104 0 13 89 90 151 130 136 88 264 110 675
117 l311 5 41 77 c71 132 88 245 57 366 -22 82 -57 143 -129 219 l-61 66 -204
10 c-225 11 -265 11 -456 -1z m-2395 -5220 c89 -29 175 -76 187 -102 6 -12 54
-96 108 -187 211 -355 321 -615 429 -1015 80 -294 90 -343 73 -368 -29 -45
-172 -225 -256 -322 -89 -103 -409 -435 -420 -435 -3 0 -22 30 -41 67 -42 81
-123 166 -182 193 -140 63 -292 -19 -388 -210 -74 -148 -105 -295 -104 -510
l0 -155 -51 -40 c-122 -96 -365 -279 -538 -407 -121 -88 -181 -138 -168 -138
48 0 330 -33 595 -69 513 -71 1641 -234 1645 -237 8 -7 -45 -399 -80 -589 -55
-305 -113 -541 -199 -825 -72 -234 -102 -315 -170 -451 -126 -251 -262 -404
-435 -490 -135 -67 -263 -75 -400 -25 -94 34 -166 81 -261 169 -139 130 -257
301 -385 557 l-67 135 -81 400 c-192 953 -251 1436 -251 2055 -1 619 72 1141
251 1815 132 493 378 912 643 1095 64 43 168 89 241 106 81 18 221 11 305 -17z
m5965 -221 c28 -6 86 -27 130 -47 l80 -37 79 -130 c180 -295 254 -427 314
-563 151 -341 270 -799 367 -1406 l37 -230 -7 -315 c-23 -1114 -128 -1910
-345 -2625 -65 -213 -110 -335 -167 -450 -237 -475 -569 -659 -899 -499 -206
101 -400 329 -575 679 l-80 160 -50 245 c-140 689 -189 974 -244 1445 -3 22
-12 119 -20 215 l-15 175 28 25 c16 14 66 54 113 90 109 83 367 341 451 450
300 389 481 816 582 1369 60 327 85 622 93 1099 l6 372 36 -5 c20 -4 59 -11
86 -17z"/>
<path d="M8292 4860 c-106 -48 -207 -202 -259 -396 -25 -92 -27 -113 -27 -309
0 -197 1 -216 27 -309 99 -366 325 -522 522 -358 217 180 299 673 175 1045
-75 222 -197 347 -340 347 -33 0 -72 -8 -98 -20z"/>
</g>
</svg>
